<?xml version="1.0" encoding="UTF-8" standalone="no"?><!DOCTYPE svg PUBLIC "-//W3C//DTD SVG 1.1//EN" "http://www.w3.org/Graphics/SVG/1.1/DTD/svg11.dtd"><svg width="100%" height="100%" viewBox="0 0 1280 400" version="1.1" xmlns="http://www.w3.org/2000/svg" xmlns:xlink="http://www.w3.org/1999/xlink" xml:space="preserve" xmlns:serif="http://www.serif.com/" style="fill-rule:evenodd;clip-rule:evenodd;stroke-linejoin:round;stroke-miterlimit:1.41421;"><g id="Twisted-Boutique" serif:id="Twisted Boutique"><g id="T"><path d="M207.751,55.746c-0.228,-2.406 -2.384,-3.656 -4.813,-2.791l-90.178,32.144c-2.429,0.866 -4.216,3.522 -3.99,5.928l0.822,8.719c0.226,2.406 2.382,3.656 4.811,2.791l90.178,-32.144c2.429,-0.866 4.217,-3.522 3.991,-5.928l-0.821,-8.719Z"/><path d="M207.751,260.842c-0.228,-2.405 -2.384,-3.656 -4.813,-2.79l-90.178,32.144c-2.429,0.865 -4.216,3.522 -3.99,5.928l0.822,8.718c0.226,2.406 2.382,3.657 4.811,2.791l90.178,-32.144c2.429,-0.866 4.217,-3.522 3.991,-5.928l-0.821,-8.719Z"/><path d="M207.751,192.919c-0.228,-2.406 -2.384,-3.656 -4.813,-2.791l-90.178,32.144c-2.429,0.866 -4.216,3.522 -3.99,5.928l0.822,8.719c0.226,2.406 2.382,3.656 4.811,2.791l90.178,-32.144c2.429,-0.866 4.217,-3.522 3.991,-5.928l-0.821,-8.719Z"/><path d="M207.751,331.288c-0.228,-2.406 -2.384,-3.656 -4.813,-2.79l-90.178,32.144c-2.429,0.865 -4.216,3.521 -3.99,5.927l0.822,8.719c0.226,2.406 2.382,3.657 4.811,2.791l90.178,-32.144c2.429,-0.866 4.217,-3.522 3.991,-5.928l-0.821,-8.719Z"/><path d="M207.751,124.828c-0.228,-2.406 -2.384,-3.656 -4.813,-2.791l-90.178,32.144c-2.429,0.866 -4.216,3.522 -3.99,5.928l0.822,8.719c0.226,2.406 2.382,3.656 4.811,2.791l90.178,-32.144c2.429,-0.866 4.217,-3.522 3.991,-5.928l-0.821,-8.719Z"/><path d="M207.751,134.407c-0.228,2.406 -2.384,3.657 -4.813,2.791l-90.178,-32.144c-2.429,-0.866 -4.216,-3.522 -3.99,-5.928l0.822,-8.719c0.226,-2.406 2.382,-3.656 4.811,-2.79l90.178,32.143c2.429,0.866 4.217,3.522 3.991,5.928l-0.821,8.719Z" style="fill-opacity:0.658824;"/><path d="M207.751,202.996c-0.228,2.406 -2.384,3.657 -4.813,2.791l-90.178,-32.144c-2.429,-0.866 -4.216,-3.522 -3.99,-5.928l0.822,-8.718c0.226,-2.406 2.382,-3.657 4.811,-2.791l90.178,32.144c2.429,0.865 4.217,3.522 3.991,5.928l-0.821,8.718Z" style="fill-opacity:0.658824;"/><path d="M207.751,269.553c-0.228,2.405 -2.384,3.656 -4.813,2.79l-90.178,-32.144c-2.429,-0.865 -4.216,-3.522 -3.99,-5.928l0.822,-8.718c0.226,-2.406 2.382,-3.657 4.811,-2.791l90.178,32.144c2.429,0.866 4.217,3.522 3.991,5.928l-0.821,8.719Z" style="fill-opacity:0.658824;"/><path d="M207.751,340.34c-0.228,2.406 -2.384,3.656 -4.813,2.791l-90.178,-32.144c-2.429,-0.866 -4.216,-3.522 -3.99,-5.928l0.822,-8.719c0.226,-2.406 2.382,-3.656 4.811,-2.79l90.178,32.143c2.429,0.866 4.217,3.522 3.991,5.928l-0.821,8.719Z" style="fill-opacity:0.658824;"/><path d="M306.914,32.628c0,-6.241 -5.76,-11.307 -12.857,-11.307l-270.773,0c-7.096,0 -12.857,5.066 -12.857,11.307l0,22.613c0,6.241 5.761,11.307 12.857,11.307l270.773,0c7.097,0 12.857,-5.066 12.857,-11.307l0,-22.613Z"/></g><g id="B"><path d="M737.593,385.009c7.096,0 12.857,-5.066 12.857,-11.307l0,-341.074c0,-6.241 -5.761,-11.307 -12.857,-11.307l-25.714,0c-7.097,0 -12.858,5.066 -12.858,11.307l0,341.074c0,6.241 5.761,11.307 12.858,11.307l25.714,0Z"/><g><path d="M885.428,116.229c0,-52.405 -70.416,-94.888 -157.278,-94.888c-2.206,0 -3.415,0 -3.415,0c0,0 0,11.269 0,26.039c63.026,0 114.118,30.825 114.118,68.85c26.22,0 46.575,0 46.575,0l0,-0.001Z"/><path d="M885.428,108.277c0,52.405 -70.416,94.888 -157.278,94.888c-2.206,0 -3.415,0 -3.415,0c0,0 0,-11.269 0,-26.039c63.026,0 114.118,-30.825 114.118,-68.85c26.22,0 46.575,0 46.575,0l0,0.001Z"/></g><g><path d="M897.658,284.216c0,-60.057 -70.415,-108.742 -157.276,-108.742c-2.206,0 -3.415,0 -3.415,0c0,0 0,12.914 0,29.841c63.026,0 114.118,35.325 114.118,78.901l46.573,0Z"/><path d="M897.658,275.102c0,60.057 -70.415,108.742 -157.276,108.742c-2.206,0 -3.415,0 -3.415,0c0,0 0,-12.913 0,-29.84c63.026,0 114.118,-35.326 114.118,-78.902l46.573,0Z"/></g></g><g><path d="M288.759,294.598c-4.776,5.8 -9.154,10.875 -13.134,15.225c-3.979,4.35 -7.391,8.25 -10.234,11.7c-2.842,3.45 -5.031,6.6 -6.567,9.45c-1.535,2.85 -2.302,5.625 -2.302,8.325c0,4.2 1.99,6.3 5.97,6.3c3.752,0 7.732,-1.475 11.939,-4.425c4.208,-2.95 8.5,-6.825 12.878,-11.625c4.378,-4.8 8.87,-10.25 13.475,-16.35c4.606,-6.1 9.183,-12.3 13.731,-18.6l11.769,0c-2.047,2.4 -4.69,5.55 -7.931,9.45c-3.241,3.9 -6.453,7.975 -9.637,12.225c-3.184,4.25 -5.913,8.4 -8.188,12.45c-2.274,4.05 -3.411,7.475 -3.411,10.275c0,2 0.597,3.6 1.791,4.8c1.194,1.2 2.928,1.8 5.202,1.8c4.094,0 8.415,-1.35 12.964,-4.05c4.548,-2.7 8.784,-6.125 12.707,-10.275c3.923,-4.15 7.249,-8.675 9.978,-13.575c2.729,-4.9 4.321,-9.5 4.776,-13.8c-0.796,-1 -1.336,-2 -1.62,-3c-0.285,-1 -0.427,-1.9 -0.427,-2.7c0,-3.2 1.706,-4.8 5.117,-4.8c2.388,0 4.009,0.9 4.861,2.7c0.853,1.8 1.28,4 1.28,6.6c0,1.3 -0.114,2.575 -0.341,3.825c-0.228,1.25 -0.455,2.425 -0.683,3.525c1.479,1.2 3.213,2.325 5.203,3.375c1.99,1.05 4.52,1.575 7.59,1.575c4.094,0 7.562,-0.725 10.405,-2.175c2.842,-1.45 5.06,-3.475 6.652,-6.075l1.535,0.9c-3.866,6.1 -10.177,9.15 -18.933,9.15c-2.502,0 -4.861,-0.425 -7.079,-1.275c-2.217,-0.85 -4.179,-1.975 -5.884,-3.375c-1.82,4.2 -4.606,8.375 -8.358,12.525c-3.753,4.15 -7.96,7.925 -12.622,11.325c-4.662,3.4 -9.524,6.15 -14.584,8.25c-5.06,2.1 -9.808,3.15 -14.242,3.15c-3.753,0 -6.937,-0.9 -9.552,-2.7c-2.616,-1.8 -3.923,-4.45 -3.923,-7.95c0,-1.9 0.284,-3.575 0.853,-5.025c0.568,-1.45 0.966,-2.525 1.194,-3.225l-0.342,-0.3c-2.274,2.6 -4.605,5.075 -6.993,7.425c-2.388,2.35 -4.804,4.4 -7.249,6.15c-2.445,1.75 -4.918,3.125 -7.42,4.125c-2.501,1 -5.06,1.5 -7.675,1.5c-4.321,0 -7.562,-0.975 -9.723,-2.925c-2.16,-1.95 -3.24,-4.575 -3.24,-7.875c0,-2.4 0.682,-4.925 2.046,-7.575c1.365,-2.65 3.298,-5.65 5.8,-9c2.501,-3.35 5.543,-7.1 9.125,-11.25c3.582,-4.15 7.647,-8.875 12.196,-14.175l11.257,0Z" style="fill-rule:nonzero;"/><path d="M402.017,294.598c-6.255,7.9 -11.542,14.55 -15.863,19.95c-4.321,5.4 -7.818,9.9 -10.49,13.5c-2.672,3.6 -4.606,6.45 -5.8,8.55c-1.194,2.1 -1.791,3.8 -1.791,5.1c0,2.6 1.194,3.9 3.582,3.9c2.275,0 4.918,-0.725 7.932,-2.175c3.013,-1.45 6.169,-3.325 9.466,-5.625c3.298,-2.3 6.596,-4.9 9.893,-7.8c3.298,-2.9 6.397,-5.775 9.296,-8.625c2.9,-2.85 5.458,-5.6 7.676,-8.25c2.217,-2.65 3.838,-4.825 4.861,-6.525l1.365,0.75c-1.365,2 -3.213,4.4 -5.544,7.2c-2.331,2.8 -4.975,5.675 -7.931,8.625c-2.957,2.95 -6.084,5.875 -9.382,8.775c-3.297,2.9 -6.652,5.5 -10.063,7.8c-3.411,2.3 -6.738,4.15 -9.978,5.55c-3.241,1.4 -6.226,2.1 -8.955,2.1c-3.07,0 -5.345,-0.75 -6.823,-2.25c-1.478,-1.5 -2.217,-3.15 -2.217,-4.95c0,-2.1 0.54,-4.325 1.62,-6.675c1.08,-2.35 2.814,-5.225 5.202,-8.625c2.388,-3.4 5.487,-7.525 9.296,-12.375c3.81,-4.85 8.387,-10.825 13.731,-17.925l10.917,0Zm9.893,-27.9c1.591,0 2.899,0.475 3.923,1.425c1.023,0.95 1.535,2.125 1.535,3.525c0,1.4 -0.512,2.575 -1.535,3.525c-1.024,0.95 -2.332,1.425 -3.923,1.425c-1.592,0 -2.9,-0.475 -3.924,-1.425c-1.023,-0.95 -1.535,-2.125 -1.535,-3.525c0,-1.4 0.512,-2.575 1.535,-3.525c1.024,-0.95 2.332,-1.425 3.924,-1.425Z" style="fill-rule:nonzero;"/><path d="M478.602,307.498c-3.412,4.8 -7.363,9.575 -11.855,14.325c-4.491,4.75 -9.409,9.025 -14.754,12.825c-5.344,3.8 -11.172,6.875 -17.483,9.225c-6.311,2.35 -13.049,3.525 -20.213,3.525c-2.729,0 -5.287,-0.3 -7.675,-0.9c-2.388,-0.6 -4.463,-1.5 -6.226,-2.7c-1.762,-1.2 -3.184,-2.725 -4.264,-4.575c-1.08,-1.85 -1.62,-4.025 -1.62,-6.525c0,-2.6 0.966,-4.95 2.899,-7.05c1.933,-2.1 4.549,-3.15 7.846,-3.15c1.706,0 3.099,0.375 4.179,1.125c1.081,0.75 1.621,1.875 1.621,3.375c0,1.4 -0.398,2.6 -1.194,3.6c-0.796,1 -1.99,1.5 -3.582,1.5c-1.251,0 -2.246,-0.3 -2.985,-0.9c-0.739,-0.6 -1.223,-1.35 -1.45,-2.25c-1.251,0.6 -2.104,1.475 -2.559,2.625c-0.454,1.15 -0.682,2.325 -0.682,3.525c0,3.5 1.507,6.125 4.52,7.875c3.014,1.75 6.397,2.625 10.149,2.625c2.388,0 4.463,-0.425 6.226,-1.275c1.762,-0.85 3.241,-1.95 4.435,-3.3c1.194,-1.35 2.075,-2.925 2.643,-4.725c0.569,-1.8 0.853,-3.6 0.853,-5.4c0,-1.9 -0.369,-3.875 -1.108,-5.925c-0.74,-2.05 -1.564,-4.075 -2.474,-6.075c-0.909,-2 -1.762,-3.975 -2.558,-5.925c-0.796,-1.95 -1.194,-3.775 -1.194,-5.475c0,-2.2 0.511,-4.175 1.535,-5.925c1.023,-1.75 2.416,-3.225 4.179,-4.425c1.762,-1.2 3.781,-2.125 6.055,-2.775c2.274,-0.65 4.662,-0.975 7.164,-0.975c4.548,0 8.244,0.875 11.087,2.625c2.843,1.75 4.264,4.075 4.264,6.975c0,2.6 -1.109,4.5 -3.326,5.7c-2.217,1.2 -4.691,1.8 -7.42,1.8c0.682,-1.1 1.279,-2.425 1.791,-3.975c0.512,-1.55 0.768,-2.975 0.768,-4.275c0,-2 -0.711,-3.675 -2.132,-5.025c-1.422,-1.35 -3.44,-2.025 -6.056,-2.025c-3.297,0 -5.742,0.875 -7.334,2.625c-1.592,1.75 -2.388,3.875 -2.388,6.375c0,2.2 0.426,4.3 1.279,6.3c0.853,2 1.848,4 2.985,6c1.024,2 1.962,4.05 2.815,6.15c0.852,2.1 1.279,4.45 1.279,7.05c0,1.9 -0.483,3.725 -1.45,5.475c-0.966,1.75 -2.246,3.35 -3.838,4.8c-1.592,1.45 -3.383,2.675 -5.373,3.675c-1.99,1 -4.008,1.65 -6.055,1.95l0.341,0.3c6.141,-0.6 11.997,-2.175 17.569,-4.725c5.572,-2.55 10.774,-5.65 15.607,-9.3c4.833,-3.65 9.296,-7.65 13.389,-12c4.094,-4.35 7.676,-8.625 10.746,-12.825l1.024,0.45Z" style="fill-rule:nonzero;"/><path d="M507.598,277.198l-13.475,17.4l22.515,0l-1.023,1.8l-22.856,0c-4.549,6.5 -8.614,12.125 -12.196,16.875c-3.582,4.75 -6.595,8.85 -9.04,12.3c-2.445,3.45 -4.293,6.35 -5.543,8.7c-1.251,2.35 -1.877,4.425 -1.877,6.225c0,1.9 0.74,3.225 2.218,3.975c1.478,0.75 3.184,1.125 5.117,1.125c4.093,0 8.614,-1.375 13.56,-4.125c4.946,-2.75 9.865,-6.125 14.754,-10.125c4.89,-4 9.552,-8.25 13.987,-12.75c4.435,-4.5 8.187,-8.55 11.257,-12.15l1.024,0.6c-3.867,4.3 -8.102,8.825 -12.708,13.575c-4.605,4.75 -9.352,9.1 -14.242,13.05c-4.89,3.95 -9.808,7.225 -14.754,9.825c-4.947,2.6 -9.637,3.9 -14.072,3.9c-3.525,0 -6.567,-0.95 -9.126,-2.85c-2.558,-1.9 -3.837,-4.55 -3.837,-7.95c0,-2.3 0.739,-4.875 2.217,-7.725c1.478,-2.85 3.411,-5.925 5.799,-9.225c2.388,-3.3 5.089,-6.9 8.102,-10.8c3.014,-3.9 6.112,-8.05 9.296,-12.45l-9.21,0l1.023,-1.8l9.552,0l13.304,-17.4l10.234,0Z" style="fill-rule:nonzero;"/><path d="M555.699,299.398c0,-1.4 -0.427,-2.45 -1.28,-3.15c-0.853,-0.7 -1.904,-1.05 -3.155,-1.05c-2.388,0 -4.975,0.825 -7.761,2.475c-2.786,1.65 -5.544,3.7 -8.273,6.15c-2.729,2.45 -5.202,5.075 -7.419,7.875c-2.218,2.8 -3.895,5.3 -5.032,7.5c2.502,-0.4 5.629,-1.175 9.381,-2.325c3.753,-1.15 7.363,-2.575 10.831,-4.275c3.468,-1.7 6.453,-3.675 8.955,-5.925c2.502,-2.25 3.753,-4.675 3.753,-7.275Zm27.632,7.95c-1.706,2.5 -3.838,5.25 -6.397,8.25c-2.558,3 -5.458,5.975 -8.699,8.925c-3.24,2.95 -6.709,5.8 -10.404,8.55c-3.696,2.75 -7.534,5.2 -11.514,7.35c-3.98,2.15 -7.988,3.85 -12.025,5.1c-4.037,1.25 -7.988,1.875 -11.854,1.875c-4.776,0 -8.472,-1.075 -11.087,-3.225c-2.616,-2.15 -3.923,-5.225 -3.923,-9.225c0,-4.4 1.506,-9.025 4.52,-13.875c3.013,-4.85 6.851,-9.325 11.513,-13.425c4.662,-4.1 9.779,-7.5 15.351,-10.2c5.572,-2.7 10.917,-4.05 16.034,-4.05c2.843,0 5.06,0.525 6.652,1.575c1.592,1.05 2.388,2.575 2.388,4.575c0,2.4 -1.478,4.725 -4.435,6.975c-2.956,2.25 -6.567,4.3 -10.831,6.15c-4.264,1.85 -8.841,3.5 -13.731,4.95c-4.889,1.45 -9.21,2.525 -12.963,3.225c-1.251,2 -2.274,4.25 -3.07,6.75c-0.796,2.5 -1.194,5 -1.194,7.5c0,1.2 0.142,2.375 0.426,3.525c0.285,1.15 0.739,2.2 1.365,3.15c0.625,0.95 1.478,1.725 2.558,2.325c1.081,0.6 2.417,0.9 4.009,0.9c3.752,0 8.159,-1.075 13.219,-3.225c5.06,-2.15 10.205,-5.025 15.436,-8.625c5.231,-3.6 10.234,-7.7 15.01,-12.3c4.776,-4.6 8.87,-9.35 12.281,-14.25l1.365,0.75Z" style="fill-rule:nonzero;"/><path d="M676.802,242.398c-4.435,6.2 -9.267,12.75 -14.498,19.65c-5.231,6.9 -10.462,13.75 -15.693,20.55c-5.23,6.8 -10.262,13.375 -15.095,19.725c-4.833,6.35 -9.125,12.175 -12.878,17.475c-3.752,5.3 -6.737,9.875 -8.955,13.725c-2.217,3.85 -3.326,6.675 -3.326,8.475c0,1.1 0.313,1.975 0.938,2.625c0.626,0.65 1.564,0.975 2.815,0.975c2.843,0 6.083,-1 9.722,-3c3.639,-2 8.017,-5.15 13.134,-9.45c4.435,-3.8 8.756,-8.025 12.963,-12.675c4.208,-4.65 7.846,-9.225 10.917,-13.725l1.364,0.6c-1.023,1.6 -2.359,3.475 -4.008,5.625c-1.649,2.15 -3.468,4.375 -5.458,6.675c-1.99,2.3 -4.122,4.625 -6.397,6.975c-2.274,2.35 -4.605,4.575 -6.993,6.675c-4.549,4.1 -9.04,7.475 -13.475,10.125c-4.435,2.65 -8.528,3.975 -12.281,3.975c-3.639,0 -6.339,-0.675 -8.102,-2.025c-1.762,-1.35 -2.644,-3.075 -2.644,-5.175c0,-1.9 0.455,-3.75 1.365,-5.55c0.91,-1.8 1.819,-3.4 2.729,-4.8l-0.341,-0.15c-1.82,1.8 -3.838,3.725 -6.055,5.775c-2.218,2.05 -4.577,3.975 -7.079,5.775c-2.502,1.8 -5.145,3.275 -7.931,4.425c-2.786,1.15 -5.658,1.725 -8.614,1.725c-4.094,0 -7.249,-1.1 -9.467,-3.3c-2.217,-2.2 -3.326,-4.8 -3.326,-7.8c0,-4.2 1.649,-8.8 4.947,-13.8c3.297,-5 7.42,-9.65 12.366,-13.95c4.947,-4.3 10.263,-7.9 15.948,-10.8c5.686,-2.9 10.973,-4.35 15.863,-4.35c3.639,0 6.538,1 8.699,3c2.161,2 3.184,4.55 3.07,7.65l0.512,0l44.007,-61.65l11.257,0Zm-60.552,61.8c0,-2.4 -0.455,-4.5 -1.364,-6.3c-0.91,-1.8 -3.014,-2.7 -6.311,-2.7c-2.275,0 -4.805,0.7 -7.591,2.1c-2.785,1.4 -5.6,3.25 -8.443,5.55c-2.842,2.3 -5.6,4.925 -8.272,7.875c-2.672,2.95 -5.032,5.95 -7.079,9c-2.047,3.05 -3.695,6.025 -4.946,8.925c-1.251,2.9 -1.877,5.5 -1.877,7.8c0,2.1 0.455,3.85 1.365,5.25c0.91,1.4 2.559,2.1 4.946,2.1c2.047,0 4.407,-0.7 7.079,-2.1c2.672,-1.4 5.487,-3.225 8.443,-5.475c2.957,-2.25 5.856,-4.825 8.699,-7.725c2.843,-2.9 5.401,-5.8 7.676,-8.7c2.274,-2.9 4.122,-5.725 5.543,-8.475c1.422,-2.75 2.132,-5.125 2.132,-7.125Z" style="fill-rule:nonzero;"/></g><g><path d="M982.767,310.672c-2.036,2.015 -4.327,3.62 -6.875,4.815c-2.546,1.194 -5.05,1.791 -7.51,1.791c-2.377,0 -4.415,-0.467 -6.111,-1.4c-1.698,-0.933 -3.014,-2.034 -3.947,-3.302l-0.255,0c-0.849,2.836 -2.418,5.859 -4.711,9.068c-2.291,3.21 -5.028,6.158 -8.211,8.845c-3.183,2.687 -6.684,4.926 -10.504,6.718c-3.819,1.791 -7.723,2.687 -11.712,2.687c-3.65,0 -6.409,-0.933 -8.276,-2.799c-1.867,-1.866 -2.801,-4.367 -2.801,-7.501c0,-1.643 0.468,-3.546 1.401,-5.71c0.934,-2.165 2.228,-4.348 3.883,-6.55c1.655,-2.202 3.607,-4.367 5.857,-6.494c2.249,-2.127 4.689,-4.03 7.319,-5.71c2.632,-1.679 5.412,-3.023 8.34,-4.03c2.928,-1.008 5.878,-1.512 8.848,-1.512c3.479,0 6.174,0.896 8.085,2.687c1.909,1.792 2.948,4.105 3.119,6.942c0.169,1.716 1.081,3.303 2.737,4.758c1.655,1.456 3.925,2.183 6.811,2.183c2.546,0 4.943,-0.56 7.193,-1.679c2.249,-1.12 4.35,-2.575 6.302,-4.367l1.018,0.56Zm-64.038,21.609c0,1.94 0.424,3.47 1.274,4.59c0.848,1.12 2.122,1.679 3.818,1.679c2.293,0 4.562,-0.541 6.812,-1.623c2.249,-1.082 4.414,-2.501 6.493,-4.255c2.079,-1.754 4.01,-3.75 5.793,-5.989c1.782,-2.24 3.331,-4.554 4.647,-6.942c1.315,-2.388 2.355,-4.721 3.119,-6.998c0.764,-2.276 1.146,-4.347 1.146,-6.213c0,-1.568 -0.446,-2.893 -1.337,-3.975c-0.892,-1.082 -2.27,-1.623 -4.138,-1.623c-1.782,0 -3.691,0.503 -5.729,1.511c-2.037,1.008 -4.095,2.333 -6.175,3.975c-2.078,1.642 -4.052,3.545 -5.92,5.71c-1.867,2.164 -3.543,4.403 -5.028,6.717c-1.486,2.314 -2.653,4.628 -3.501,6.942c-0.85,2.314 -1.274,4.478 -1.274,6.494Z" style="fill-rule:nonzero;"/><path d="M996.39,300.484c-3.31,3.956 -6.493,7.725 -9.548,11.308c-3.056,3.583 -5.772,6.867 -8.149,9.852c-2.375,2.986 -4.264,5.58 -5.665,7.782c-1.4,2.201 -2.1,3.937 -2.1,5.206c0,1.194 0.339,2.071 1.019,2.631c0.678,0.56 1.569,0.84 2.673,0.84c1.612,0 3.374,-0.448 5.283,-1.344c1.909,-0.896 3.862,-2.053 5.856,-3.471c1.995,-1.418 3.947,-2.985 5.856,-4.702c1.911,-1.717 3.693,-3.415 5.348,-5.094c1.655,-1.68 3.098,-3.229 4.328,-4.647c1.232,-1.418 2.144,-2.537 2.738,-3.358l11.203,-15.003l8.785,0c-4.583,5.523 -8.466,10.207 -11.649,14.051c-3.183,3.844 -5.772,7.109 -7.767,9.796c-1.994,2.687 -3.416,4.871 -4.264,6.55c-0.849,1.679 -1.273,3.154 -1.273,4.423c0,0.895 0.296,1.66 0.891,2.295c0.594,0.634 1.443,0.951 2.546,0.951c1.698,0 3.65,-0.541 5.856,-1.623c2.207,-1.082 4.499,-2.501 6.875,-4.255c2.377,-1.754 4.732,-3.732 7.066,-5.933c2.334,-2.202 4.541,-4.386 6.621,-6.55c2.078,-2.165 3.967,-4.199 5.665,-6.102c1.698,-1.903 3.013,-3.452 3.947,-4.646l1.272,0.336c-1.018,1.268 -2.375,2.892 -4.073,4.87c-1.698,1.978 -3.608,4.068 -5.73,6.27c-2.122,2.201 -4.37,4.441 -6.746,6.717c-2.377,2.277 -4.817,4.311 -7.321,6.102c-2.504,1.791 -4.966,3.266 -7.385,4.422c-2.418,1.157 -4.689,1.736 -6.811,1.736c-2.377,0 -4.264,-0.579 -5.665,-1.736c-1.401,-1.156 -2.1,-2.705 -2.1,-4.646c0,-1.493 0.275,-2.929 0.826,-4.31c0.553,-1.381 0.955,-2.258 1.21,-2.631l-0.255,-0.224c-1.781,1.791 -3.649,3.508 -5.601,5.15c-1.953,1.642 -3.905,3.079 -5.856,4.31c-1.953,1.232 -3.926,2.221 -5.92,2.967c-1.996,0.747 -3.969,1.12 -5.921,1.12c-2.716,0 -4.668,-0.541 -5.856,-1.624c-1.189,-1.082 -1.782,-2.369 -1.782,-3.862c0,-1.866 0.573,-3.881 1.718,-6.046c1.146,-2.165 2.737,-4.59 4.775,-7.277c2.036,-2.688 4.477,-5.71 7.319,-9.069c2.844,-3.359 5.964,-7.203 9.359,-11.532l8.402,0Z" style="fill-rule:nonzero;"/><path d="M1061.07,287.496l-10.058,12.988l16.806,0l-0.764,1.343l-17.061,0c-3.394,4.852 -6.429,9.05 -9.102,12.596c-2.674,3.545 -4.923,6.606 -6.748,9.181c-1.825,2.575 -3.203,4.739 -4.138,6.493c-0.933,1.754 -1.4,3.303 -1.4,4.647c0,1.418 0.552,2.407 1.655,2.967c1.104,0.559 2.376,0.839 3.819,0.839c3.056,0 6.43,-1.026 10.122,-3.079c3.692,-2.052 7.363,-4.571 11.013,-7.557c3.649,-2.985 7.129,-6.158 10.439,-9.517c3.31,-3.358 6.111,-6.381 8.403,-9.068l0.764,0.448c-2.886,3.209 -6.048,6.587 -9.486,10.132c-3.436,3.545 -6.98,6.792 -10.629,9.74c-3.651,2.949 -7.321,5.393 -11.014,7.334c-3.692,1.941 -7.193,2.911 -10.503,2.911c-2.63,0 -4.901,-0.709 -6.81,-2.127c-1.911,-1.419 -2.866,-3.397 -2.866,-5.934c0,-1.717 0.553,-3.639 1.656,-5.766c1.103,-2.127 2.546,-4.423 4.329,-6.886c1.782,-2.463 3.798,-5.15 6.047,-8.061c2.249,-2.911 4.562,-6.008 6.939,-9.293l-6.875,0l0.763,-1.343l7.129,0l9.931,-12.988l7.639,0Z" style="fill-rule:nonzero;"/><path d="M1088.31,300.484c-4.667,5.896 -8.614,10.86 -11.839,14.891c-3.225,4.03 -5.835,7.389 -7.831,10.076c-1.994,2.687 -3.436,4.814 -4.327,6.382c-0.892,1.567 -1.338,2.836 -1.338,3.806c0,1.941 0.892,2.911 2.674,2.911c1.697,0 3.671,-0.541 5.921,-1.623c2.249,-1.082 4.604,-2.482 7.065,-4.199c2.462,-1.716 4.922,-3.657 7.384,-5.822c2.462,-2.164 4.775,-4.31 6.939,-6.437c2.164,-2.128 4.074,-4.18 5.729,-6.158c1.655,-1.978 2.864,-3.601 3.628,-4.87l1.019,0.559c-1.019,1.493 -2.398,3.285 -4.138,5.375c-1.74,2.089 -3.714,4.235 -5.92,6.437c-2.207,2.202 -4.54,4.385 -7.002,6.55c-2.462,2.165 -4.965,4.105 -7.512,5.822c-2.546,1.717 -5.028,3.097 -7.447,4.142c-2.42,1.045 -4.647,1.568 -6.684,1.568c-2.292,0 -3.989,-0.56 -5.093,-1.68c-1.103,-1.119 -1.655,-2.351 -1.655,-3.694c0,-1.568 0.403,-3.228 1.209,-4.982c0.807,-1.755 2.101,-3.9 3.883,-6.438c1.783,-2.538 4.096,-5.617 6.939,-9.237c2.844,-3.62 6.26,-8.08 10.249,-13.379l8.147,0Zm7.385,-20.825c1.188,0 2.164,0.355 2.928,1.064c0.764,0.709 1.146,1.586 1.146,2.631c0,1.045 -0.382,1.922 -1.146,2.631c-0.764,0.709 -1.74,1.064 -2.928,1.064c-1.188,0 -2.164,-0.355 -2.928,-1.064c-0.764,-0.709 -1.146,-1.586 -1.146,-2.631c0,-1.045 0.382,-1.922 1.146,-2.631c0.764,-0.709 1.74,-1.064 2.928,-1.064Z" style="fill-rule:nonzero;"/><path d="M1143.82,300.484l-27.372,37.171c5.177,-0.896 9.909,-2.351 14.195,-4.367c4.287,-2.015 8.19,-4.329 11.713,-6.941c3.522,-2.613 6.663,-5.393 9.421,-8.341c2.758,-2.949 5.198,-5.804 7.32,-8.565l0.764,0.559c-2.122,3.061 -4.69,6.14 -7.703,9.237c-3.012,3.098 -6.386,5.971 -10.12,8.621c-3.736,2.65 -7.809,4.945 -12.223,6.886c-4.413,1.94 -9.167,3.321 -14.259,4.142c-4.583,5.971 -9.102,11.98 -13.559,18.026c-4.456,6.046 -8.848,12.166 -13.177,18.361l-8.147,0c6.28,-8.061 12.434,-16.159 18.46,-24.295c6.026,-8.136 12.349,-16.122 18.969,-23.96l-0.254,-0.223c-1.527,1.418 -3.098,2.91 -4.71,4.478c-1.614,1.567 -3.332,2.986 -5.157,4.254c-1.825,1.269 -3.798,2.314 -5.92,3.135c-2.122,0.821 -4.456,1.232 -7.002,1.232c-3.225,0 -5.602,-0.858 -7.13,-2.575c-1.527,-1.717 -2.291,-3.882 -2.291,-6.494c0,-2.09 0.594,-4.31 1.783,-6.662c1.188,-2.351 2.757,-4.683 4.71,-6.997c1.952,-2.314 4.201,-4.534 6.747,-6.662c2.546,-2.127 5.199,-3.993 7.958,-5.598c2.757,-1.605 5.496,-2.892 8.211,-3.862c2.717,-0.971 5.219,-1.456 7.512,-1.456c2.801,0 5.007,0.784 6.62,2.351c1.613,1.568 2.419,3.21 2.419,4.927l0.255,0l4.327,-6.382l7.64,0Zm-21.898,0.448c-2.037,0 -4.158,0.541 -6.366,1.623c-2.207,1.082 -4.371,2.519 -6.493,4.311c-2.121,1.791 -4.138,3.825 -6.047,6.101c-1.91,2.277 -3.586,4.591 -5.029,6.942c-1.443,2.351 -2.588,4.628 -3.438,6.83c-0.848,2.201 -1.272,4.161 -1.272,5.877c0,3.658 1.698,5.487 5.092,5.487c1.443,0 3.183,-0.523 5.22,-1.568c2.037,-1.045 4.117,-2.444 6.239,-4.198c2.121,-1.754 4.243,-3.751 6.365,-5.99c2.122,-2.24 4.031,-4.516 5.729,-6.83c1.698,-2.314 3.055,-4.59 4.074,-6.83c1.018,-2.239 1.527,-4.217 1.527,-5.933c0,-1.717 -0.382,-3.117 -1.145,-4.199c-0.764,-1.082 -2.249,-1.623 -4.456,-1.623Z" style="fill-rule:nonzero;"/><path d="M1173.1,300.484c-3.31,3.956 -6.492,7.725 -9.548,11.308c-3.055,3.583 -5.772,6.867 -8.149,9.852c-2.375,2.986 -4.264,5.58 -5.665,7.782c-1.399,2.201 -2.1,3.937 -2.1,5.206c0,1.194 0.339,2.071 1.019,2.631c0.679,0.56 1.569,0.84 2.673,0.84c1.613,0 3.374,-0.448 5.283,-1.344c1.911,-0.896 3.862,-2.053 5.857,-3.471c1.994,-1.418 3.946,-2.985 5.856,-4.702c1.91,-1.717 3.692,-3.415 5.348,-5.094c1.654,-1.68 3.097,-3.229 4.327,-4.647c1.232,-1.418 2.144,-2.537 2.739,-3.358l11.203,-15.003l8.784,0c-4.583,5.523 -8.466,10.207 -11.649,14.051c-3.183,3.844 -5.772,7.109 -7.766,9.796c-1.995,2.687 -3.416,4.871 -4.265,6.55c-0.849,1.679 -1.273,3.154 -1.273,4.423c0,0.895 0.297,1.66 0.891,2.295c0.594,0.634 1.443,0.951 2.546,0.951c1.698,0 3.651,-0.541 5.857,-1.623c2.207,-1.082 4.498,-2.501 6.875,-4.255c2.376,-1.754 4.731,-3.732 7.066,-5.933c2.334,-2.202 4.54,-4.386 6.62,-6.55c2.08,-2.165 3.967,-4.199 5.665,-6.102c1.698,-1.903 3.013,-3.452 3.947,-4.646l1.273,0.336c-1.018,1.268 -2.376,2.892 -4.074,4.87c-1.697,1.978 -3.607,4.068 -5.728,6.27c-2.122,2.201 -4.372,4.441 -6.748,6.717c-2.377,2.277 -4.817,4.311 -7.321,6.102c-2.504,1.791 -4.966,3.266 -7.384,4.422c-2.419,1.157 -4.69,1.736 -6.812,1.736c-2.376,0 -4.264,-0.579 -5.665,-1.736c-1.4,-1.156 -2.1,-2.705 -2.1,-4.646c0,-1.493 0.275,-2.929 0.827,-4.31c0.552,-1.381 0.955,-2.258 1.209,-2.631l-0.254,-0.224c-1.782,1.791 -3.649,3.508 -5.602,5.15c-1.952,1.642 -3.905,3.079 -5.856,4.31c-1.952,1.232 -3.925,2.221 -5.92,2.967c-1.994,0.747 -3.968,1.12 -5.921,1.12c-2.715,0 -4.668,-0.541 -5.856,-1.624c-1.188,-1.082 -1.782,-2.369 -1.782,-3.862c0,-1.866 0.573,-3.881 1.718,-6.046c1.147,-2.165 2.737,-4.59 4.775,-7.277c2.037,-2.688 4.477,-5.71 7.321,-9.069c2.843,-3.359 5.962,-7.203 9.357,-11.532l8.402,0Z" style="fill-rule:nonzero;"/><path d="M1238.28,304.067c0,-1.045 -0.318,-1.829 -0.955,-2.352c-0.637,-0.522 -1.421,-0.783 -2.355,-0.783c-1.783,0 -3.714,0.615 -5.792,1.847c-2.08,1.232 -4.138,2.762 -6.176,4.59c-2.037,1.829 -3.882,3.788 -5.538,5.878c-1.654,2.09 -2.906,3.956 -3.756,5.598c1.867,-0.298 4.202,-0.877 7.003,-1.735c2.8,-0.858 5.495,-1.922 8.085,-3.191c2.588,-1.269 4.815,-2.743 6.684,-4.422c1.867,-1.68 2.8,-3.49 2.8,-5.43Zm20.624,5.933c-1.272,1.866 -2.864,3.919 -4.773,6.158c-1.911,2.239 -4.075,4.46 -6.493,6.662c-2.419,2.202 -5.008,4.329 -7.767,6.382c-2.759,2.052 -5.623,3.881 -8.593,5.486c-2.971,1.604 -5.963,2.873 -8.975,3.806c-3.014,0.933 -5.963,1.4 -8.849,1.4c-3.564,0 -6.323,-0.803 -8.275,-2.407c-1.953,-1.605 -2.928,-3.9 -2.928,-6.886c0,-3.284 1.124,-6.736 3.373,-10.356c2.25,-3.62 5.114,-6.96 8.594,-10.021c3.479,-3.06 7.299,-5.598 11.458,-7.613c4.159,-2.015 8.148,-3.023 11.968,-3.023c2.121,0 3.776,0.392 4.964,1.176c1.188,0.783 1.783,1.922 1.783,3.415c0,1.791 -1.104,3.526 -3.31,5.206c-2.207,1.679 -4.902,3.209 -8.085,4.59c-3.183,1.381 -6.599,2.612 -10.248,3.695c-3.65,1.082 -6.875,1.884 -9.675,2.407c-0.934,1.493 -1.698,3.172 -2.293,5.038c-0.593,1.866 -0.89,3.732 -0.89,5.598c0,0.896 0.106,1.773 0.317,2.631c0.213,0.859 0.553,1.642 1.019,2.351c0.467,0.709 1.103,1.288 1.91,1.736c0.806,0.448 1.804,0.672 2.992,0.672c2.801,0 6.089,-0.803 9.867,-2.408c3.776,-1.604 7.616,-3.75 11.521,-6.437c3.904,-2.687 7.639,-5.748 11.203,-9.181c3.565,-3.434 6.62,-6.979 9.168,-10.636l1.017,0.559Z" style="fill-rule:nonzero;"/></g></g></svg>