<?xml version="1.0" encoding="UTF-8" standalone="no"?><!DOCTYPE svg PUBLIC "-//W3C//DTD SVG 1.1//EN" "http://www.w3.org/Graphics/SVG/1.1/DTD/svg11.dtd"><svg width="100%" height="100%" viewBox="0 0 475 569" version="1.1" xmlns="http://www.w3.org/2000/svg" xmlns:xlink="http://www.w3.org/1999/xlink" xml:space="preserve" xmlns:serif="http://www.serif.com/" style="fill-rule:evenodd;clip-rule:evenodd;stroke-linejoin:round;stroke-miterlimit:1.41421;"><g id="Collapsed"><path d="M453.732,234.369c11.352,0 20.568,8.105 20.568,18.089l0,36.174c0,9.984 -9.216,18.088 -20.568,18.088l-134.022,0l-0.337,4.816c-0.271,3.856 -3.785,7.582 -7.844,8.315l-74.674,13.478l74.675,13.478c0.614,0.111 1.215,0.29 1.795,0.528l0.16,-0.029c4.06,-0.733 7.136,1.804 6.867,5.659l-0.565,8.059l0.566,8.073c0.269,3.855 -2.808,6.392 -6.867,5.659l-0.16,-0.029c-0.58,0.238 -1.182,0.418 -1.797,0.529l-74.674,13.478l74.675,13.478c0.614,0.111 1.215,0.29 1.795,0.528l0.16,-0.029c4.06,-0.733 7.136,1.804 6.867,5.659l-0.565,8.059l0.566,8.073c0.269,3.855 -2.808,6.392 -6.867,5.659l-0.16,-0.029c-0.58,0.238 -1.182,0.418 -1.797,0.529l-74.674,13.478l74.675,13.478c0.614,0.111 1.215,0.29 1.795,0.528l0.16,-0.029c4.06,-0.733 7.136,1.804 6.867,5.659l-0.565,8.059l0.566,8.073c0.269,3.855 -2.808,6.392 -6.867,5.659l-0.16,-0.029c-0.58,0.238 -1.182,0.418 -1.797,0.529l-74.674,13.478l74.675,13.478c0.614,0.111 1.215,0.29 1.795,0.528l0.16,-0.029c4.06,-0.733 7.136,1.804 6.867,5.659l-0.565,8.059l0.566,8.073c0.269,3.855 -2.808,6.392 -6.867,5.659l-0.16,-0.029c-0.58,0.238 -1.182,0.418 -1.797,0.529l-150.717,27.203c-4.059,0.733 -7.136,-1.804 -6.865,-5.661l0.977,-13.974c0.271,-3.856 3.785,-7.583 7.845,-8.315l74.674,-13.478l-74.673,-13.478c-0.615,-0.111 -1.217,-0.29 -1.797,-0.528l-0.161,0.029c-4.059,0.733 -7.136,-1.804 -6.865,-5.661l0.564,-8.072l-0.563,-8.057c-0.271,-3.856 2.806,-6.393 6.865,-5.66l0.159,0.029c0.58,-0.239 1.182,-0.418 1.797,-0.529l74.674,-13.478l-74.673,-13.478c-0.615,-0.111 -1.217,-0.29 -1.797,-0.528l-0.161,0.029c-4.059,0.733 -7.136,-1.804 -6.865,-5.661l0.564,-8.072l-0.563,-8.057c-0.271,-3.856 2.806,-6.393 6.865,-5.66l0.159,0.029c0.58,-0.239 1.182,-0.418 1.797,-0.529l74.674,-13.478l-74.673,-13.478c-0.615,-0.111 -1.217,-0.29 -1.797,-0.528l-0.161,0.029c-4.059,0.733 -7.136,-1.804 -6.865,-5.661l0.564,-8.072l-0.563,-8.057c-0.271,-3.856 2.806,-6.393 6.865,-5.66l0.159,0.029c0.58,-0.239 1.182,-0.418 1.797,-0.529l74.674,-13.478l-74.673,-13.478c-0.615,-0.111 -1.217,-0.29 -1.797,-0.528l-0.161,0.029c-0.444,0.08 -0.876,0.121 -1.294,0.126l-0.089,0c-3.351,-0.006 -5.721,-2.382 -5.482,-5.787l0.416,-5.945l0.148,-2.127l-0.563,-8.057c-0.271,-3.857 2.806,-6.394 6.865,-5.66l0.159,0.029c0.58,-0.239 1.182,-0.418 1.797,-0.529l2.037,-0.368l26.142,-4.718l40.434,-7.298l-210.814,0c-11.352,0 -20.568,-8.104 -20.568,-18.088l0,-36.174c0,-9.984 9.216,-18.089 20.568,-18.089l433.164,0Z"/></g></svg>