<?xml version="1.0" encoding="UTF-8" standalone="no"?><!DOCTYPE svg PUBLIC "-//W3C//DTD SVG 1.1//EN" "http://www.w3.org/Graphics/SVG/1.1/DTD/svg11.dtd"><svg width="100%" height="100%" viewBox="0 0 475 569" version="1.1" xmlns="http://www.w3.org/2000/svg" xmlns:xlink="http://www.w3.org/1999/xlink" xml:space="preserve" xmlns:serif="http://www.serif.com/" style="fill-rule:evenodd;clip-rule:evenodd;stroke-linejoin:round;stroke-miterlimit:1.41421;"><g id="Expanded"><path d="M450.104,1.689c11.223,0 20.333,8.011 20.333,17.881l0,35.761c0,9.87 -9.11,17.881 -20.333,17.881l-135.616,0c-0.919,2.687 -3.143,5.104 -5.883,6.081l-109.513,39.035l109.513,39.035c3.841,1.37 6.668,5.57 6.31,9.375l-0.585,6.214l0.585,6.214c0.358,3.805 -2.469,8.006 -6.31,9.375l-108.42,38.646l108.42,38.647c3.841,1.368 6.668,5.569 6.31,9.374l-0.548,5.82l0.548,5.82c0.358,3.805 -2.469,8.005 -6.31,9.374l-105.015,37.433l105.015,37.432c3.841,1.37 6.668,5.57 6.31,9.375l-0.65,6.901l0.65,6.9c0.358,3.805 -2.469,8.006 -6.31,9.375l-111.369,39.698l111.369,39.696c3.841,1.37 6.668,5.57 6.31,9.375l-0.624,6.631l0.624,6.631c0.358,3.805 -2.469,8.005 -6.31,9.375l-142.611,50.833c-3.841,1.37 -7.251,-0.609 -7.609,-4.414l-1.3,-13.788c-0.358,-3.805 2.469,-8.005 6.31,-9.373l110.151,-39.263l-110.151,-39.263c-3.841,-1.37 -6.668,-5.57 -6.31,-9.375l0.666,-7.066l-0.666,-7.064c-0.358,-3.805 2.469,-8.007 6.31,-9.375l110.909,-39.533l-110.909,-39.534c-0.381,-0.136 -0.753,-0.3 -1.112,-0.489c-1.673,-0.392 -2.989,-1.54 -3.583,-3.234c-1.164,-1.707 -1.796,-3.73 -1.615,-5.651l0.453,-4.8l-0.453,-4.801c-0.181,-1.922 0.451,-3.944 1.615,-5.652c0.595,-1.692 1.91,-2.84 3.581,-3.233c0.36,-0.189 0.732,-0.354 1.114,-0.49l107.874,-38.452l-107.874,-38.451c-3.841,-1.37 -6.668,-5.57 -6.31,-9.375l0.567,-6.014l-0.567,-6.015c-0.358,-3.804 2.469,-8.005 6.31,-9.374l108.979,-38.846l-108.979,-38.845c-3.841,-1.37 -6.668,-5.57 -6.31,-9.375l0.604,-6.404l-0.604,-6.404c-0.358,-3.805 2.469,-8.005 6.31,-9.375l82.304,-29.337l-223.803,0c-11.223,0 -20.333,-8.011 -20.333,-17.881l0,-35.761c0,-9.87 9.11,-17.881 20.333,-17.881l428.208,0Z"/></g></svg>